<svg width="760" height="220" viewBox="0 0 760 220" fill="none" xmlns="http://www.w3.org/2000/svg">
  <rect width="760" height="220" rx="28" fill="#050B12"/>
  <rect x="10" y="10" width="740" height="200" rx="22" stroke="#5ACBDE" stroke-opacity=".22" stroke-width="2"/>
  <g transform="translate(34 28)">
    <rect width="164" height="164" rx="28" fill="#07131D" stroke="#5ACBDE" stroke-opacity=".45" stroke-width="2"/>
    <path d="M82 23C100 44 118 64 118 90C118 115 102 134 82 134C62 134 46 115 46 90C46 64 64 44 82 23Z" fill="url(#flame)"/>
    <path d="M82 53C93 67 102 80 102 94C102 107 93 117 82 117C71 117 62 107 62 94C62 80 71 67 82 53Z" fill="#06121B"/>
    <path d="M52 111L68 96L82 104L99 79L114 89" stroke="#FFCA5B" stroke-width="5.5" stroke-linecap="round" stroke-linejoin="round"/>
    <path d="M55 111H112" stroke="#82F3FF" stroke-opacity=".55" stroke-width="3" stroke-linecap="round"/>
    <path d="M61 65V88M82 60V98M103 72V94" stroke="#82F3FF" stroke-width="4" stroke-linecap="round"/>
  </g>
  <g transform="translate(232 57)">
    <text x="0" y="62" fill="#F5FDFF" font-family="Noto Sans SC, PingFang SC, Microsoft YaHei, sans-serif" font-size="58" font-weight="900">烛机</text>
    <text x="0" y="108" fill="#82F3FF" font-family="Space Grotesk, Arial, sans-serif" font-size="30" font-weight="700" letter-spacing="1.5">CandleMind</text>
    <text x="0" y="146" fill="#8FAAB1" font-family="Noto Sans SC, PingFang SC, Microsoft YaHei, sans-serif" font-size="19" font-weight="600">A股K线AI预言终端</text>
  </g>
  <defs>
    <linearGradient id="flame" x1="48" x2="122" y1="28" y2="134" gradientUnits="userSpaceOnUse">
      <stop stop-color="#82F3FF"/>
      <stop offset=".55" stop-color="#31C9E6"/>
      <stop offset="1" stop-color="#0A3A4A"/>
    </linearGradient>
  </defs>
</svg>
